<svg xmlns="http://www.w3.org/2000/svg" viewBox="55 -2 98 82">
  <defs><style>.cls-1,.cls-4{fill:#b7814f;}.cls-1,.cls-2{fill-rule:evenodd;}.cls-2,.cls-3{fill:#2e2a25;}</style></defs>
  <title>Heartwood Icon</title>
  <polygon class="cls-1" points="137.89 19.8 137.89 0.97 126.88 0.97 126.88 13.07 105.47 0 59.56 29.09 71.86 29.05 71.86 76.39 138.03 76.39 138.03 28.83 148.82 28.79 144.47 23.82 137.89 19.8"/><path class="cls-2" d="M104.27,97.32c.07-5.94,3.21-10.33,7.78-14.06,6.14-5,16.51-5.07,22.33-.74a21.51,21.51,0,0,1,7,8.38V86.79c-3.75-5.79-10.79-9.54-19.31-9.49-8.77.06-19.48,9.06-19.48,20.8.46,7.57,3.66,14.15,9.14,17.91h3.42C108.3,112.62,104.18,105.51,104.27,97.32Z" transform="translate(-3.34 -39.62)"/><path class="cls-2" d="M82.06,93.86c-.09-4.93,1.74-9.31,4.42-13.35,2.3-3.47,4.36-7.14,7-10.3s5.64-6.63,9.2-8.72c4.16-2.45,9-3.81,13.7-5.22,6.64-2,13.31-1.13,19.84.81a24,24,0,0,1,5,2.35V57.15a21.66,21.66,0,0,0-5.59-1.94c-3.88-.77-7.84-1.15-11.77-1.7a45.53,45.53,0,0,0-14.42,2.9c-7.31,2.58-13,7.35-17.63,13.32-3.19,4.1-5.75,8.68-8.54,13.09a15.88,15.88,0,0,0-2.71,8.3,59.73,59.73,0,0,0,3.89,22.67c.29.75.59,1.49.89,2.22h1.9C84.45,108.92,82.2,101.61,82.06,93.86Z" transform="translate(-3.34 -39.62)"/><path class="cls-2" d="M78.57,111.69c.59,1.5,1.43,2.92,2.07,4.39h2.64c-.33-.81-.62-1.63-.89-2.49A67.21,67.21,0,0,1,79,92.12a21.9,21.9,0,0,1,5.35-13.48A27.22,27.22,0,0,0,87.25,74a39.69,39.69,0,0,1,13.41-14.72,42.31,42.31,0,0,1,22.51-7.54c2,.13,5,.74,7.17,1l-4.81-2.92c-1,0-1.92.1-2.89.21-2.19.25-4.4.31-6.6.55-6.14.67-11.87,2.42-16.63,6.64a32.94,32.94,0,0,1-3.8,3.21,34.62,34.62,0,0,0-9,9.14c-2.69,3.7-4.07,8.18-7.17,11.7-2.14,2.42-2.9,5.75-3.06,9s.11,6.78,0,10.16A26.72,26.72,0,0,0,78.57,111.69Z" transform="translate(-3.34 -39.62)"/><path class="cls-2" d="M95.91,107.37c-1.35-4.44-3.09-8.94-2.33-13.69a33.06,33.06,0,0,1,2.61-8.2c2.21-4.88,4.79-9.54,9.45-12.6,4.49-2.94,9.22-5.38,14.6-5.88a29.69,29.69,0,0,1,12.92,2.09,27.93,27.93,0,0,1,8.21,4.75V71.57a22.85,22.85,0,0,0-8.5-4.78c-4.43-1.31-9-2.42-13.49-1.47a54,54,0,0,0-11.84,4.11,19.91,19.91,0,0,0-6.93,5.27c-4,5-7.23,10.56-8.5,17A19.17,19.17,0,0,0,92,98.74a111.24,111.24,0,0,0,3.31,12.92A21,21,0,0,0,97.21,116h2.73A31,31,0,0,1,95.91,107.37Z" transform="translate(-3.34 -39.62)"/><path class="cls-2" d="M75.2,85.85a12.92,12.92,0,0,1,2.45-4.7,39.43,39.43,0,0,0,5.33-9A32.32,32.32,0,0,1,93.75,59.56,23.25,23.25,0,0,0,96.82,57a22.52,22.52,0,0,1,9.66-6,67.74,67.74,0,0,1,16.3-2.91l-2.89-1.77c-5.24.65-10.44,1.62-15.64,2.8,0-.34-.07-.68-.1-1a65.6,65.6,0,0,1,13.6-3.08l-8.94-5.47L62.9,68.71l12.3,0Z" transform="translate(-3.34 -39.62)"/><path class="cls-2" d="M91.66,107.17A78.91,78.91,0,0,1,90,95.63c-.31-5.16,1.93-9.73,4.18-14.21.68-1.34,1.49-2.61,2.21-3.92a20.41,20.41,0,0,1,8.5-8.15c5-2.73,10.18-5.35,15.92-6.17a24.79,24.79,0,0,1,11.54,1.34,34,34,0,0,1,9.06,4.58l0-.63,3.1,0c-4.11-3.77-8.72-6.57-14.81-7.25-5.32-.6-10.4-1-15.56.69-4.73,1.56-9.56,3-13.28,6.49A50.47,50.47,0,0,0,88.35,88,21.27,21.27,0,0,0,88,101.72c1.09,3.62,2,7.3,2.85,11A23.81,23.81,0,0,0,91.87,116h3.22A28.75,28.75,0,0,1,91.66,107.17Z" transform="translate(-3.34 -39.62)"/><path class="cls-2" d="M124.38,84.82c-8,.28-14.17,5.13-14.17,14,0,7.56,5.09,13.35,13.5,13.44,8.11.08,13.52-5.42,14-14.09C138.12,90.6,132.31,85,124.38,84.82Zm10.47,19.37a5.4,5.4,0,0,1-3.49,3,8.22,8.22,0,0,0-3.26,2.15,6.92,6.92,0,0,1-5.75,1.53c-5.57-1-8.56-4.71-10.29-9.79,0-.18-.28-.41-.23-.48,1.17-1.82-.61-3.94.57-5.74s2-3.7,3.49-5.1a21,21,0,0,1,5.21-3.24,7.54,7.54,0,0,1,2.53-.45c6.52.39,10.53,3,12.32,9.44A11.36,11.36,0,0,1,134.85,104.19Z" transform="translate(-3.34 -39.62)"/><path class="cls-2" d="M124.42,88.55c-6,0-10.26,4.18-10.18,10,.08,6.12,3.71,9.9,9.46,9.85a9.74,9.74,0,0,0,10.24-9.76C134,92.79,129.82,88.52,124.42,88.55Zm6.12,10.38a10,10,0,0,1-1.66-1.28c-1-1.1-1.63-2.6-2.75-3.41-1.79-1.28-5.52-.17-6,3.07-.41,2.56-.06,3.72,1.67,4.93a4.09,4.09,0,0,0,5.29-.11c.48-.35.93-.77,1.39-1.15a5.12,5.12,0,0,1-3.61,3,7,7,0,0,0-2.29.79c-1.09.9-2.1.38-3,0a2.48,2.48,0,0,1-1.66-2.57c0-1.57-.88-3.12-1.23-4.72a2.6,2.6,0,0,1,.4-1.61,11.16,11.16,0,0,1,7.1-5.28c2-.56,5.42,2.14,6.6,4.85a3.21,3.21,0,0,1,.47,1.45A9,9,0,0,1,130.54,98.93Zm-6.24-2.42-1,.76-1.86,2.92L121,100c.18-1.08-.39-2.73,1.88-4.42,1.62-1.42,3.62-.11,4.24,3l-2-1.19s.11-.38.25-.9C125,96.31,124.24,96.35,124.3,96.51Z" transform="translate(-3.34 -39.62)"/><path class="cls-2" d="M130.21,48.38A43.65,43.65,0,0,1,141.15,51l.08,0V48.77l-6.74-1.94.15-.73a13.29,13.29,0,0,1,6.59,1.67V40.6h-11Z" transform="translate(-3.34 -39.62)"/><path class="cls-2" d="M123.9,56.74c-4.19.14-8.1,1.27-12.06,2.34-7.44,2-13.12,6.49-17.72,12.43-2.3,3-4.05,6.36-6.09,9.53a24.89,24.89,0,0,0-4.22,16.4c.61,6.5,2.87,12.5,4.85,18.57h1.51a19.78,19.78,0,0,1-1.23-3.86c-.74-3.64-2-7.17-2.91-10.78A23.22,23.22,0,0,1,87,87,54.41,54.41,0,0,1,100.21,67.1c3.06-2.95,6.92-4.59,10.83-5.95,4.42-1.54,8.89-3.14,13.7-2.83,8.14.54,15.65,2.59,21.28,9.16.28.33.57.62.86.94H149c-1.1-1.14-2.21-2.29-3.33-3.42-2.92-2.94-6.08-5.62-10.23-6.48C131.65,57.74,127.76,57.32,123.9,56.74Z" transform="translate(-3.34 -39.62)"/><path class="cls-2" d="M130.21,52.72c3.65.44,7.41.78,11,2.45V52.63a43.26,43.26,0,0,0-11-2.72Z" transform="translate(-3.34 -39.62)"/><path class="cls-1" d="M75.2,103.06v.25A2.08,2.08,0,0,0,75.2,103.06Z" transform="translate(-3.34 -39.62)"/><path class="cls-2" d="M75.84,109.34A12.41,12.41,0,0,1,75.2,107v9h3.42C77.75,113.77,76.69,111.59,75.84,109.34Z" transform="translate(-3.34 -39.62)"/><path class="cls-2" d="M133,74.53c-6.94-2.5-13.42-2.46-19.38.12-8.91,3.86-14.32,11.85-14.84,21.92-.25,5,1.25,10.15,4.6,15.62a21.56,21.56,0,0,0,3,3.82h2.69a23.4,23.4,0,0,1-8.29-19c.26-11.85,9.9-22.24,20.62-22.24a16.79,16.79,0,0,1,1.84.11,21.6,21.6,0,0,1,16.28,6.88,23.83,23.83,0,0,1,1.84,2.18V80.87c-.35-.39-.71-.78-1.08-1.15C138.23,77.7,135.76,75.51,133,74.53Z" transform="translate(-3.34 -39.62)"/><path class="cls-2" d="M139.44,105.22c2.37-6.12,2.59-12.14-1.85-17.46-3.76-4.51-8.52-6.81-14.59-6.17-6.22.65-11.1,3.37-14.33,8.76-6.28,10.46.68,23.37,11.87,25.66h5.4c1.8-.43,3.64-1.16,5.56-1.63.46.78.34,1.37-.53,1.63h3.75a19.93,19.93,0,0,0,6.65-7.12v-4.12A17.6,17.6,0,0,1,136,113a10.29,10.29,0,0,1-2.3,1.49c-.37.16-.95-.18-1.43-.29.22-.39.35-.91.68-1.13A17,17,0,0,0,139.44,105.22ZM130.8,112c-1.79.72-3.54,1.52-5.33,2.26-2.35,1-4.67,0-6.87-.5-1.34-.32-2.31-2-3.65-2.6a9,9,0,0,1-3.83-3.85c-2.71-4.15-2.93-8.61-1.64-13.27,2.41-8.69,11.07-11.93,18.57-10.29s11,8.11,11.15,14.36C139.32,103.55,135.65,110,130.8,112Z" transform="translate(-3.34 -39.62)"/><path class="cls-2" d="M147.67,64.42c1.21,1.34,2.4,2.65,3.63,4h4.63L144.4,61.36A26.9,26.9,0,0,1,147.67,64.42Z" transform="translate(-3.34 -39.62)"/><path class="cls-2" d="M141.37,111.27a25.91,25.91,0,0,1-5,4.74h5Z" transform="translate(-3.34 -39.62)"/><path class="cls-2" d="M119.76,69.18c-13.32,2.23-20.56,9-24.21,22.59a18.7,18.7,0,0,0-.12,8.41A39,39,0,0,0,101.85,116h2.4a26.6,26.6,0,0,1-6.83-15.89c-.9-11.3,3.4-20,12.78-25.71a23.89,23.89,0,0,1,12.67-3.61,30.75,30.75,0,0,1,9.36,1.57,22.29,22.29,0,0,1,9.14,5.9V75.52c-5.35-4.51-11-6.72-17.16-6.72A27.2,27.2,0,0,0,119.76,69.18Z" transform="translate(-3.34 -39.62)"/>
</svg>