<svg id="Layer_1" data-name="Layer 1" xmlns="http://www.w3.org/2000/svg" viewBox="0 0 209.23 138.03"><defs><style>.cls-1,.cls-4{fill:#b7814f;}.cls-1,.cls-2{fill-rule:evenodd;}.cls-2,.cls-3{fill:#2e2a25;}</style></defs><title>HW vertical logo</title><polygon class="cls-1" points="137.89 19.8 137.89 0.97 126.88 0.97 126.88 13.07 105.47 0 59.56 29.09 71.86 29.05 71.86 76.39 138.03 76.39 138.03 28.83 148.82 28.79 144.47 23.82 137.89 19.8"/><path class="cls-2" d="M104.27,97.32c.07-5.94,3.21-10.33,7.78-14.06,6.14-5,16.51-5.07,22.33-.74a21.51,21.51,0,0,1,7,8.38V86.79c-3.75-5.79-10.79-9.54-19.31-9.49-8.77.06-19.48,9.06-19.48,20.8.46,7.57,3.66,14.15,9.14,17.91h3.42C108.3,112.62,104.18,105.51,104.27,97.32Z" transform="translate(-3.34 -39.62)"/><path class="cls-2" d="M82.06,93.86c-.09-4.93,1.74-9.31,4.42-13.35,2.3-3.47,4.36-7.14,7-10.3s5.64-6.63,9.2-8.72c4.16-2.45,9-3.81,13.7-5.22,6.64-2,13.31-1.13,19.84.81a24,24,0,0,1,5,2.35V57.15a21.66,21.66,0,0,0-5.59-1.94c-3.88-.77-7.84-1.15-11.77-1.7a45.53,45.53,0,0,0-14.42,2.9c-7.31,2.58-13,7.35-17.63,13.32-3.19,4.1-5.75,8.68-8.54,13.09a15.88,15.88,0,0,0-2.71,8.3,59.73,59.73,0,0,0,3.89,22.67c.29.75.59,1.49.89,2.22h1.9C84.45,108.92,82.2,101.61,82.06,93.86Z" transform="translate(-3.34 -39.62)"/><path class="cls-2" d="M78.57,111.69c.59,1.5,1.43,2.92,2.07,4.39h2.64c-.33-.81-.62-1.63-.89-2.49A67.21,67.21,0,0,1,79,92.12a21.9,21.9,0,0,1,5.35-13.48A27.22,27.22,0,0,0,87.25,74a39.69,39.69,0,0,1,13.41-14.72,42.31,42.31,0,0,1,22.51-7.54c2,.13,5,.74,7.17,1l-4.81-2.92c-1,0-1.92.1-2.89.21-2.19.25-4.4.31-6.6.55-6.14.67-11.87,2.42-16.63,6.64a32.94,32.94,0,0,1-3.8,3.21,34.62,34.62,0,0,0-9,9.14c-2.69,3.7-4.07,8.18-7.17,11.7-2.14,2.42-2.9,5.75-3.06,9s.11,6.78,0,10.16A26.72,26.72,0,0,0,78.57,111.69Z" transform="translate(-3.34 -39.62)"/><path class="cls-2" d="M95.91,107.37c-1.35-4.44-3.09-8.94-2.33-13.69a33.06,33.06,0,0,1,2.61-8.2c2.21-4.88,4.79-9.54,9.45-12.6,4.49-2.94,9.22-5.38,14.6-5.88a29.69,29.69,0,0,1,12.92,2.09,27.93,27.93,0,0,1,8.21,4.75V71.57a22.85,22.85,0,0,0-8.5-4.78c-4.43-1.31-9-2.42-13.49-1.47a54,54,0,0,0-11.84,4.11,19.91,19.91,0,0,0-6.93,5.27c-4,5-7.23,10.56-8.5,17A19.17,19.17,0,0,0,92,98.74a111.24,111.24,0,0,0,3.31,12.92A21,21,0,0,0,97.21,116h2.73A31,31,0,0,1,95.91,107.37Z" transform="translate(-3.34 -39.62)"/><path class="cls-2" d="M75.2,85.85a12.92,12.92,0,0,1,2.45-4.7,39.43,39.43,0,0,0,5.33-9A32.32,32.32,0,0,1,93.75,59.56,23.25,23.25,0,0,0,96.82,57a22.52,22.52,0,0,1,9.66-6,67.74,67.74,0,0,1,16.3-2.91l-2.89-1.77c-5.24.65-10.44,1.62-15.64,2.8,0-.34-.07-.68-.1-1a65.6,65.6,0,0,1,13.6-3.08l-8.94-5.47L62.9,68.71l12.3,0Z" transform="translate(-3.34 -39.62)"/><path class="cls-2" d="M91.66,107.17A78.91,78.91,0,0,1,90,95.63c-.31-5.16,1.93-9.73,4.18-14.21.68-1.34,1.49-2.61,2.21-3.92a20.41,20.41,0,0,1,8.5-8.15c5-2.73,10.18-5.35,15.92-6.17a24.79,24.79,0,0,1,11.54,1.34,34,34,0,0,1,9.06,4.58l0-.63,3.1,0c-4.11-3.77-8.72-6.57-14.81-7.25-5.32-.6-10.4-1-15.56.69-4.73,1.56-9.56,3-13.28,6.49A50.47,50.47,0,0,0,88.35,88,21.27,21.27,0,0,0,88,101.72c1.09,3.62,2,7.3,2.85,11A23.81,23.81,0,0,0,91.87,116h3.22A28.75,28.75,0,0,1,91.66,107.17Z" transform="translate(-3.34 -39.62)"/><path class="cls-2" d="M124.38,84.82c-8,.28-14.17,5.13-14.17,14,0,7.56,5.09,13.35,13.5,13.44,8.11.08,13.52-5.42,14-14.09C138.12,90.6,132.31,85,124.38,84.82Zm10.47,19.37a5.4,5.4,0,0,1-3.49,3,8.22,8.22,0,0,0-3.26,2.15,6.92,6.92,0,0,1-5.75,1.53c-5.57-1-8.56-4.71-10.29-9.79,0-.18-.28-.41-.23-.48,1.17-1.82-.61-3.94.57-5.74s2-3.7,3.49-5.1a21,21,0,0,1,5.21-3.24,7.54,7.54,0,0,1,2.53-.45c6.52.39,10.53,3,12.32,9.44A11.36,11.36,0,0,1,134.85,104.19Z" transform="translate(-3.34 -39.62)"/><path class="cls-2" d="M124.42,88.55c-6,0-10.26,4.18-10.18,10,.08,6.12,3.71,9.9,9.46,9.85a9.74,9.74,0,0,0,10.24-9.76C134,92.79,129.82,88.52,124.42,88.55Zm6.12,10.38a10,10,0,0,1-1.66-1.28c-1-1.1-1.63-2.6-2.75-3.41-1.79-1.28-5.52-.17-6,3.07-.41,2.56-.06,3.72,1.67,4.93a4.09,4.09,0,0,0,5.29-.11c.48-.35.93-.77,1.39-1.15a5.12,5.12,0,0,1-3.61,3,7,7,0,0,0-2.29.79c-1.09.9-2.1.38-3,0a2.48,2.48,0,0,1-1.66-2.57c0-1.57-.88-3.12-1.23-4.72a2.6,2.6,0,0,1,.4-1.61,11.16,11.16,0,0,1,7.1-5.28c2-.56,5.42,2.14,6.6,4.85a3.21,3.21,0,0,1,.47,1.45A9,9,0,0,1,130.54,98.93Zm-6.24-2.42-1,.76-1.86,2.92L121,100c.18-1.08-.39-2.73,1.88-4.42,1.62-1.42,3.62-.11,4.24,3l-2-1.19s.11-.38.25-.9C125,96.31,124.24,96.35,124.3,96.51Z" transform="translate(-3.34 -39.62)"/><path class="cls-2" d="M130.21,48.38A43.65,43.65,0,0,1,141.15,51l.08,0V48.77l-6.74-1.94.15-.73a13.29,13.29,0,0,1,6.59,1.67V40.6h-11Z" transform="translate(-3.34 -39.62)"/><path class="cls-2" d="M123.9,56.74c-4.19.14-8.1,1.27-12.06,2.34-7.44,2-13.12,6.49-17.72,12.43-2.3,3-4.05,6.36-6.09,9.53a24.89,24.89,0,0,0-4.22,16.4c.61,6.5,2.87,12.5,4.85,18.57h1.51a19.78,19.78,0,0,1-1.23-3.86c-.74-3.64-2-7.17-2.91-10.78A23.22,23.22,0,0,1,87,87,54.41,54.41,0,0,1,100.21,67.1c3.06-2.95,6.92-4.59,10.83-5.95,4.42-1.54,8.89-3.14,13.7-2.83,8.14.54,15.65,2.59,21.28,9.16.28.33.57.62.86.94H149c-1.1-1.14-2.21-2.29-3.33-3.42-2.92-2.94-6.08-5.62-10.23-6.48C131.65,57.74,127.76,57.32,123.9,56.74Z" transform="translate(-3.34 -39.62)"/><path class="cls-2" d="M130.21,52.72c3.65.44,7.41.78,11,2.45V52.63a43.26,43.26,0,0,0-11-2.72Z" transform="translate(-3.34 -39.62)"/><path class="cls-1" d="M75.2,103.06v.25A2.08,2.08,0,0,0,75.2,103.06Z" transform="translate(-3.34 -39.62)"/><path class="cls-2" d="M75.84,109.34A12.41,12.41,0,0,1,75.2,107v9h3.42C77.75,113.77,76.69,111.59,75.84,109.34Z" transform="translate(-3.34 -39.62)"/><path class="cls-2" d="M133,74.53c-6.94-2.5-13.42-2.46-19.38.12-8.91,3.86-14.32,11.85-14.84,21.92-.25,5,1.25,10.15,4.6,15.62a21.56,21.56,0,0,0,3,3.82h2.69a23.4,23.4,0,0,1-8.29-19c.26-11.85,9.9-22.24,20.62-22.24a16.79,16.79,0,0,1,1.84.11,21.6,21.6,0,0,1,16.28,6.88,23.83,23.83,0,0,1,1.84,2.18V80.87c-.35-.39-.71-.78-1.08-1.15C138.23,77.7,135.76,75.51,133,74.53Z" transform="translate(-3.34 -39.62)"/><path class="cls-2" d="M139.44,105.22c2.37-6.12,2.59-12.14-1.85-17.46-3.76-4.51-8.52-6.81-14.59-6.17-6.22.65-11.1,3.37-14.33,8.76-6.28,10.46.68,23.37,11.87,25.66h5.4c1.8-.43,3.64-1.16,5.56-1.63.46.78.34,1.37-.53,1.63h3.75a19.93,19.93,0,0,0,6.65-7.12v-4.12A17.6,17.6,0,0,1,136,113a10.29,10.29,0,0,1-2.3,1.49c-.37.16-.95-.18-1.43-.29.22-.39.35-.91.68-1.13A17,17,0,0,0,139.44,105.22ZM130.8,112c-1.79.72-3.54,1.52-5.33,2.26-2.35,1-4.67,0-6.87-.5-1.34-.32-2.31-2-3.65-2.6a9,9,0,0,1-3.83-3.85c-2.71-4.15-2.93-8.61-1.64-13.27,2.41-8.69,11.07-11.93,18.57-10.29s11,8.11,11.15,14.36C139.32,103.55,135.65,110,130.8,112Z" transform="translate(-3.34 -39.62)"/><path class="cls-2" d="M147.67,64.42c1.21,1.34,2.4,2.65,3.63,4h4.63L144.4,61.36A26.9,26.9,0,0,1,147.67,64.42Z" transform="translate(-3.34 -39.62)"/><path class="cls-2" d="M141.37,111.27a25.91,25.91,0,0,1-5,4.74h5Z" transform="translate(-3.34 -39.62)"/><path class="cls-2" d="M119.76,69.18c-13.32,2.23-20.56,9-24.21,22.59a18.7,18.7,0,0,0-.12,8.41A39,39,0,0,0,101.85,116h2.4a26.6,26.6,0,0,1-6.83-15.89c-.9-11.3,3.4-20,12.78-25.71a23.89,23.89,0,0,1,12.67-3.61,30.75,30.75,0,0,1,9.36,1.57,22.29,22.29,0,0,1,9.14,5.9V75.52c-5.35-4.51-11-6.72-17.16-6.72A27.2,27.2,0,0,0,119.76,69.18Z" transform="translate(-3.34 -39.62)"/><path class="cls-3" d="M9.27,171.54h4.35v.34a7.07,7.07,0,0,1-.28,2.1,4.39,4.39,0,0,1-.92,1.58,4.77,4.77,0,0,1-3.73,1.65,5.13,5.13,0,0,1-3.78-1.59,5.5,5.5,0,0,1,0-7.73,5.34,5.34,0,0,1,3.9-1.6,5.4,5.4,0,0,1,2.3.5,6.77,6.77,0,0,1,2,1.63L12,169.51a3.86,3.86,0,0,0-3.16-1.73,3.78,3.78,0,0,0-2.8,1.16,3.84,3.84,0,0,0-1.13,2.83,3.71,3.71,0,0,0,1.26,2.89,3.75,3.75,0,0,0,2.56,1.06,3.14,3.14,0,0,0,2.1-.79,2.79,2.79,0,0,0,1-1.9H9.27Z" transform="translate(-3.34 -39.62)"/><path class="cls-3" d="M23.5,168H19.28v2.53h4.09V172H19.28v3.51H23.5V177H17.69V166.5H23.5Z" transform="translate(-3.34 -39.62)"/><path class="cls-3" d="M27.66,177V165.78l7.67,8V166.5h1.59v11.15l-7.67-8V177Z" transform="translate(-3.34 -39.62)"/><path class="cls-3" d="M47.32,168H43.1v2.53h4.1V172H43.1v3.51h4.22V177h-5.8V166.5h5.8Z" transform="translate(-3.34 -39.62)"/><path class="cls-3" d="M55,172.53,58.3,177H56.36l-3-4.3h-.29V177H51.48V166.5h1.86a4.66,4.66,0,0,1,3,.78,2.88,2.88,0,0,1,1,2.3,3,3,0,0,1-.64,1.92A2.82,2.82,0,0,1,55,172.53Zm-2-1.2h.5c1.51,0,2.26-.58,2.26-1.73S55.1,168,53.63,168h-.56Z" transform="translate(-3.34 -39.62)"/><path class="cls-3" d="M68.14,174.46H63.63L62.46,177H60.75L66,165.84,71,177H69.24ZM67.49,173l-1.56-3.58L64.29,173Z" transform="translate(-3.34 -39.62)"/><path class="cls-3" d="M76,166.5v9h3.09V177H74.37V166.5Z" transform="translate(-3.34 -39.62)"/><path class="cls-3" d="M96.79,167.06v1.88a4.41,4.41,0,0,0-2.85-1.16A3.62,3.62,0,0,0,91.21,169a4,4,0,0,0-1.12,2.83,3.86,3.86,0,0,0,1.12,2.8A3.73,3.73,0,0,0,94,175.71a3.36,3.36,0,0,0,1.42-.27,3.53,3.53,0,0,0,.68-.37,6.56,6.56,0,0,0,.74-.56v1.92a5.66,5.66,0,0,1-2.86.77,5.28,5.28,0,0,1-3.85-1.57,5.21,5.21,0,0,1-1.59-3.83,5.42,5.42,0,0,1,1.33-3.58,5.28,5.28,0,0,1,4.23-1.93A5.39,5.39,0,0,1,96.79,167.06Z" transform="translate(-3.34 -39.62)"/><path class="cls-3" d="M100.28,171.71a5.16,5.16,0,0,1,1.63-3.82,5.36,5.36,0,0,1,3.89-1.59,5.44,5.44,0,0,1,3.85,9.32,5.57,5.57,0,0,1-7.59.17A5.16,5.16,0,0,1,100.28,171.71Zm1.6,0a3.8,3.8,0,0,0,1.17,2.87,3.89,3.89,0,0,0,5.48,0,4.08,4.08,0,0,0,0-5.64,3.94,3.94,0,0,0-5.54,0A3.82,3.82,0,0,0,101.88,171.72Z" transform="translate(-3.34 -39.62)"/><path class="cls-3" d="M115.35,177V165.78l7.67,8V166.5h1.58v11.15l-7.67-8V177Z" transform="translate(-3.34 -39.62)"/><path class="cls-3" d="M132.1,168v9h-1.58v-9H128.1V166.5h6.42V168Z" transform="translate(-3.34 -39.62)"/><path class="cls-3" d="M141.57,172.53l3.26,4.48h-1.94l-3-4.3h-.28V177H138V166.5h1.86a4.66,4.66,0,0,1,3,.78,2.88,2.88,0,0,1,1,2.3,3,3,0,0,1-.64,1.92A2.82,2.82,0,0,1,141.57,172.53Zm-2-1.2h.5c1.51,0,2.26-.58,2.26-1.73s-.73-1.61-2.2-1.61h-.56Z" transform="translate(-3.34 -39.62)"/><path class="cls-3" d="M154.67,174.46h-4.51L149,177h-1.71l5.21-11.17,5,11.17h-1.74ZM154,173l-1.56-3.58L150.83,173Z" transform="translate(-3.34 -39.62)"/><path class="cls-3" d="M168.18,167.06v1.88a4.39,4.39,0,0,0-2.85-1.16A3.62,3.62,0,0,0,162.6,169a3.94,3.94,0,0,0-1.11,2.83,3.85,3.85,0,0,0,1.11,2.8,3.73,3.73,0,0,0,2.74,1.13,3.41,3.41,0,0,0,1.43-.27,3.78,3.78,0,0,0,.67-.37,6.56,6.56,0,0,0,.74-.56v1.92a5.66,5.66,0,0,1-2.86.77,5.29,5.29,0,0,1-3.85-1.57,5.2,5.2,0,0,1-1.58-3.83,5.41,5.41,0,0,1,1.32-3.58,5.28,5.28,0,0,1,4.23-1.93A5.39,5.39,0,0,1,168.18,167.06Z" transform="translate(-3.34 -39.62)"/><path class="cls-3" d="M175.17,168v9h-1.59v-9h-2.42V166.5h6.42V168Z" transform="translate(-3.34 -39.62)"/><path class="cls-3" d="M182.66,166.5V177h-1.59V166.5Z" transform="translate(-3.34 -39.62)"/><path class="cls-3" d="M187.26,177V165.78l7.67,8V166.5h1.59v11.15l-7.67-8V177Z" transform="translate(-3.34 -39.62)"/><path class="cls-3" d="M206.64,171.54H211v.34a7.43,7.43,0,0,1-.27,2.1,4.54,4.54,0,0,1-.92,1.58,4.77,4.77,0,0,1-3.73,1.65,5.13,5.13,0,0,1-3.78-1.59,5.48,5.48,0,0,1,3.92-9.33,5.4,5.4,0,0,1,2.3.5,6.53,6.53,0,0,1,2,1.63l-1.13,1.09a3.83,3.83,0,0,0-3.15-1.73,3.76,3.76,0,0,0-2.8,1.16,3.84,3.84,0,0,0-1.13,2.83,4,4,0,0,0,3.81,3.95,3.17,3.17,0,0,0,2.11-.79,2.79,2.79,0,0,0,1-1.9h-2.62Z" transform="translate(-3.34 -39.62)"/><path class="cls-3" d="M12.51,142.18c-1.32,0-1.35,0-1.35.93v4.61c0,3,.19,3.26,1.63,3.45l1,.13a.93.93,0,0,1,0,1.12c-1.83-.06-3.43-.09-4.86-.09s-3.14,0-4.77.09a.9.9,0,0,1,0-1.12l.77-.09c1.47-.19,1.63-.51,1.63-3.49v-11.9c0-3-.16-3.3-1.63-3.49l-.77-.1a.9.9,0,0,1,0-1.12c1.56.07,3.23.1,4.77.1s3,0,4.44-.1a.9.9,0,0,1,0,1.12l-.67.1c-1.38.19-1.57.51-1.57,3.49v3.71c0,.93,0,1,1.35,1h6.65c1.35,0,1.35,0,1.35-1v-3.71c0-3-.16-3.24-1.64-3.46l-.86-.13a.9.9,0,0,1,0-1.12c1.76.07,3.33.1,4.86.1s3,0,4.51-.1a.9.9,0,0,1,0,1.12l-.63.1c-1.48.22-1.67.51-1.67,3.49v11.9c0,3,.19,3.2,1.67,3.45l.76.13a.9.9,0,0,1,0,1.12c-1.6-.06-3.16-.09-4.64-.09s-3.16,0-4.7.09a.9.9,0,0,1,0-1.12l.7-.09c1.48-.19,1.64-.51,1.64-3.49v-4.61c0-.89,0-.93-1.35-.93Z" transform="translate(-3.34 -39.62)"/><path class="cls-3" d="M37,139.53c0,.89,0,1,.89,1h2.21c1.66,0,2-.23,2.37-1.76l.16-.8c.22-.26,1-.26,1.18,0-.06,1-.1,2.18-.1,3.39s0,2.37.1,3.39a.92.92,0,0,1-1.18,0l-.16-.8c-.32-1.54-.71-1.8-2.37-1.8H37.85c-.86,0-.89,0-.89,1V147a5.72,5.72,0,0,0,.51,3c.41.58,1,.84,3.36.84,2.78,0,3.87-.1,5.63-3.72a.78.78,0,0,1,1.18.16,18.06,18.06,0,0,1-1.34,5.12c-1.7-.06-4.77-.09-7.39-.09H34.75c-1.54,0-3.11,0-5.51.09a.93.93,0,0,1,0-1.12l1.51-.22c1.44-.22,1.63-.42,1.63-3.36V135.78c0-2.91-.19-3.1-1.63-3.39l-.8-.16a.8.8,0,0,1,.06-1.12c1.5.07,3.07.1,4.61.1H41.4c2.05,0,3.87,0,4.29-.1,0,.51.26,2.82.42,5-.13.35-.87.42-1.19.13a7.52,7.52,0,0,0-1.21-2.53,4.21,4.21,0,0,0-3.14-1H38c-1,0-1,.06-1,1.25Z" transform="translate(-3.34 -39.62)"/><path class="cls-3" d="M54.27,145.1c-.77,0-.87,0-1.06.64L52,149.45a3.72,3.72,0,0,0-.22,1.15c0,.19.41.38,1.31.54l1,.16c.19.23.26,1-.06,1.12-1.12-.06-2.28-.06-3.62-.09-1.09,0-1.82.09-3.29.09-.36-.19-.33-.86-.1-1.12l.86-.09a2.2,2.2,0,0,0,2-1.6c.55-1.28,1.16-2.82,2-5.12l2.91-7.81c.74-2,1.28-3.14,1.19-4.06a6.48,6.48,0,0,0,2.78-1.92c.42,0,.61.16.74.64.25.92.64,2.11,1.44,4.38l4.35,12.54c.67,1.92,1,2.66,2.14,2.85l1.22.19c.19.16.25.93,0,1.12-1.53-.06-3.26-.09-4.92-.09s-2.85,0-4.32.09a.73.73,0,0,1-.07-1.12l1-.16c.73-.12.86-.35.86-.54a13.21,13.21,0,0,0-.61-2.18l-.86-2.75c-.16-.51-.42-.57-1.54-.57Zm3.64-1.7c.74,0,.9-.1.64-.93l-.83-2.59c-.45-1.38-1-3.1-1.31-3.78-.26.74-.9,2.47-1.38,3.94l-.8,2.4c-.28.86-.12,1,.68,1Z" transform="translate(-3.34 -39.62)"/><path class="cls-3" d="M71.32,136.39c0-3.2-.06-3.55-1.41-3.74l-.86-.13a.73.73,0,0,1,.06-1.12c2.4-.16,4.9-.29,7.94-.29a13.52,13.52,0,0,1,6.27,1.15A5.24,5.24,0,0,1,86.14,137c0,2.85-1.92,4.06-3.39,4.8-.32.16-.32.35-.16.7,2.11,4.29,3.42,6.69,5,8a4,4,0,0,0,2.15.9.61.61,0,0,1,.13.83,7.59,7.59,0,0,1-2.53.29,6.55,6.55,0,0,1-6.21-3.36,39.65,39.65,0,0,1-2.49-5,1.64,1.64,0,0,0-1.7-1.12c-1.12,0-1.18.06-1.18.7v3.94c0,2.94.19,3.17,1.63,3.42l.86.16a1,1,0,0,1,0,1.12c-1.69-.06-3.17-.09-4.7-.09s-3,0-4.67.09a.9.9,0,0,1,0-1.12l.86-.16c1.44-.25,1.63-.48,1.63-3.42Zm4.39,4.07c0,1.12.09,1.21,2,1.21a3.1,3.1,0,0,0,2.43-.89,4.65,4.65,0,0,0,1.15-3.46c0-2.88-1.69-4.74-4.19-4.74-1.31,0-1.37.1-1.37,1.64Z" transform="translate(-3.34 -39.62)"/><path class="cls-3" d="M95.42,133.61c0-.77,0-.93-.77-.93h-2c-2.34,0-3,1.28-4,3.62a.91.91,0,0,1-1.19-.29,37.53,37.53,0,0,0,1.06-5.44.75.75,0,0,1,.45-.16.72.72,0,0,1,.45.13c.16.54.25.67,2.68.67h11.91c2.11,0,2.59,0,2.88-.71a.8.8,0,0,1,.41-.09.7.7,0,0,1,.48.22,22.9,22.9,0,0,0-.48,5.51c-.16.28-1,.35-1.18.09-.55-2-1-3.55-3.39-3.55h-1.92c-.77,0-.87.1-.87.93v14.11c0,3,.2,3.23,1.63,3.42l1.29.16a1,1,0,0,1,0,1.12c-2.08-.06-3.68-.09-5.12-.09s-3.2,0-5.44.09a.9.9,0,0,1,0-1.12l1.44-.16c1.44-.16,1.63-.44,1.63-3.42Z" transform="translate(-3.34 -39.62)"/><path class="cls-3" d="M139.48,132.46a2.46,2.46,0,0,0-1.44.7,22.84,22.84,0,0,0-1.76,3.55c-1.57,3.75-5.06,11.71-6.62,15.87a1.92,1.92,0,0,1-1.06.26,1.44,1.44,0,0,1-.86-.26c-.36-.76-.84-1.92-1.22-2.81l-1.34-3c-.45-1-.87-2-1.15-2.47-.29.55-.68,1.32-1.09,2.21l-1.48,3.11c-.48,1-.83,1.95-1.34,3a1.81,1.81,0,0,1-1.09.26,1.61,1.61,0,0,1-.86-.26c-.51-1.34-1.79-4.22-2.88-6.62l-5.22-11.3c-.86-1.88-1-2-2.11-2.27l-.8-.16c-.25-.32-.22-1,.13-1.12,1.18.07,2.53.1,4.16.1,1.41,0,2.66,0,3.87-.1.26.13.39.93.06,1.12l-.57.1c-.58.09-.8.25-.8.48a39,39,0,0,0,1.66,4l3.17,7.07c.9,2,1.38,2.88,1.76,3.65.38-.64,1.12-2.15,1.63-3.3l.42-.93a3.48,3.48,0,0,0,.32-1.12,6.42,6.42,0,0,0-.35-1.18l-3.08-6.75c-.73-1.6-1-1.83-2.17-2l-.32,0c-.32-.25-.26-1,.09-1.12,1.38.07,2.63.1,4,.1,1.63,0,2.85,0,3.68-.1.38.1.35,1,.12,1.12l-.54.13c-.38.1-.86.22-.86.45a2.69,2.69,0,0,0,.29,1l.95,2.21c.29.67.71,1.53,1,2.11.32-.67.67-1.47,1-2.18l.29-.64a13.9,13.9,0,0,0,.92-2.37c0-.22-.12-.32-.64-.44l-1.15-.23a.92.92,0,0,1,.1-1.12c.93.07,2.08.1,3.13.1,1.25,0,2.44,0,3.27-.1a.92.92,0,0,1,0,1.15l-.9.2c-1.08.22-1.31.22-2.43,2.14-.77,1.31-1.57,2.91-2,3.74a10.27,10.27,0,0,0-.71,1.67,2.48,2.48,0,0,0,.26.8l1.5,3.23c.84,1.76,1.28,2.78,1.48,3.23,1.53-3.71,3.29-7.77,4.83-11.68a16.23,16.23,0,0,0,.83-2.59c0-.32-.51-.45-.93-.58l-.7-.19a.87.87,0,0,1,.09-1.12c1,.07,2.34.1,3.3.1,1.12,0,2,0,2.94-.1.29.16.32.87.1,1.12Z" transform="translate(-3.34 -39.62)"/><path class="cls-3" d="M162,141.67c0,7-4.68,11.17-11.55,11.17-6.44,0-11.11-4.22-11.11-10.91a11,11,0,0,1,11.43-11.23C157.4,130.7,162,135.18,162,141.67Zm-11.49-9.5c-3.94,0-6.05,3.68-6.05,9,0,3.91,1.38,10.18,6.59,10.18,4.19,0,5.83-4.1,5.83-9.28C156.86,136.62,154.46,132.17,150.49,132.17Z" transform="translate(-3.34 -39.62)"/><path class="cls-3" d="M187.19,141.67c0,7-4.67,11.17-11.55,11.17-6.43,0-11.1-4.22-11.1-10.91A11,11,0,0,1,176,130.7C182.62,130.7,187.19,135.18,187.19,141.67Zm-11.48-9.5c-3.94,0-6.05,3.68-6.05,9,0,3.91,1.37,10.18,6.59,10.18,4.19,0,5.82-4.1,5.82-9.28C182.07,136.62,179.67,132.17,175.71,132.17Z" transform="translate(-3.34 -39.62)"/><path class="cls-3" d="M192.12,136.39c0-3-.06-3.65-1.53-3.81l-.61-.06c-.32-.16-.32-1.09.06-1.12,2.69-.16,5.18-.29,8.58-.29a22.32,22.32,0,0,1,7.45,1.06,9.7,9.7,0,0,1,6.5,9.28,10.21,10.21,0,0,1-5.73,9.57,18,18,0,0,1-8.09,1.5c-1.51,0-3.11-.19-4.26-.19-1.54,0-3.17,0-5,.09a.9.9,0,0,1,0-1.12l1-.16c1.44-.22,1.63-.48,1.63-3.42Zm4.58,10.15c0,1.76.06,2.91.64,3.58a3.43,3.43,0,0,0,2.65.93c5.54,0,7.43-4.93,7.43-9.28,0-5.76-3-9.19-8.84-9.19-.86,0-1.47.16-1.66.42a4,4,0,0,0-.22,1.86Z" transform="translate(-3.34 -39.62)"/><rect class="cls-4" x="0.33" y="118.46" width="206.74" height="3.38"/></svg>